<svg width="64" height="64" viewBox="0 0 64 64" fill="none" xmlns="http://www.w3.org/2000/svg">
<circle cx="32" cy="32" r="32" fill="#E61E43"/>
<path d="M49.5575 32.3595C44.99 28.017 38.8025 25.3545 32 25.3545C25.1975 25.3545 19.01 28.017 14.4425 32.3595C14.165 32.637 14 33.012 14 33.4245C14 33.8371 14.165 34.212 14.4425 34.4896L18.155 38.2021C18.425 38.4796 18.8 38.6445 19.2125 38.6445C19.625 38.6445 19.9925 38.4795 20.2625 38.217C21.455 37.1145 22.7974 36.1771 24.2599 35.442C24.7549 35.1945 25.1 34.6845 25.1 34.092V29.4345C27.275 28.7295 29.5925 28.3545 32 28.3545C34.4075 28.3545 36.725 28.7295 38.9 29.427V34.0845C38.9 34.677 39.245 35.187 39.74 35.4345C41.2025 36.1695 42.545 37.107 43.7375 38.2095C44.0075 38.472 44.3825 38.637 44.7875 38.637C45.2 38.637 45.575 38.4645 45.845 38.1945L49.5575 34.482C49.835 34.212 49.9999 33.8371 49.9999 33.4245C50 33.012 49.835 32.6295 49.5575 32.3595Z" fill="white"/>
</svg>
