<svg width="90" height="90" viewBox="0 0 90 90" fill="none" xmlns="http://www.w3.org/2000/svg">
<circle cx="45" cy="45" r="45" fill="#4BA91E"/>
<path fill-rule="evenodd" clip-rule="evenodd" d="M29.2831 34H47.1434C49.4991 34 51.4264 35.8845 51.4264 38.2831V52.7169C51.4264 55.0726 49.4991 57 47.1434 57H29.2831C26.9274 57 25 55.0726 25 52.7169V38.2831C25 35.9274 26.9274 34 29.2831 34ZM60.2496 36.6555C60.4637 36.527 60.7207 36.3985 60.9777 36.3557C62.6481 35.9702 64.1472 37.2551 64.1472 38.8399V52.0745C64.1472 52.5456 64.0187 52.974 63.8045 53.3594C63.0764 54.6015 61.5345 55.0298 60.2924 54.3017L53.568 50.4469V40.5103L60.2496 36.6555Z" fill="white"/>
</svg>
