<svg width="18" height="10" viewBox="0 0 18 10" fill="none" xmlns="http://www.w3.org/2000/svg">
<path d="M17.881 4.23385L13.7902 0.143C13.6433 -0.0285942 13.385 -0.0485976 13.2134 0.0983881C13.0418 0.245339 13.0218 0.503592 13.1688 0.675186C13.1825 0.691182 13.1974 0.706123 13.2134 0.719799L16.6047 4.1152H0.409071C0.183161 4.1152 0 4.29836 0 4.5243C0 4.75025 0.183161 4.93338 0.409071 4.93338H16.6047L13.2134 8.32466C13.0418 8.47161 13.0218 8.72987 13.1688 8.90146C13.3158 9.07306 13.574 9.09306 13.7456 8.94607C13.7616 8.93236 13.7765 8.91746 13.7902 8.90146L17.8811 4.81061C18.0396 4.65111 18.0396 4.39342 17.881 4.23385Z" fill="white"/>
</svg>
