<svg width="249" height="23" viewBox="0 0 249 23" fill="none" xmlns="http://www.w3.org/2000/svg">
<path d="M10.2522 5.8V14.136L1.77219 5.24V17H3.13219V8.664L11.6122 17.56V5.8H10.2522ZM15.3784 14.12V9.64H14.0984V14.28C14.0984 15.1547 14.3278 15.8533 14.7864 16.376C15.2451 16.8987 15.8584 17.16 16.6264 17.16C17.1171 17.16 17.5438 17.0533 17.9064 16.84C18.2691 16.616 18.5731 16.2853 18.8184 15.848V17H20.0984V9.64H18.8184V14.12C18.8184 14.4827 18.7384 14.8027 18.5784 15.08C18.4291 15.3573 18.2104 15.576 17.9224 15.736C17.6451 15.8853 17.3198 15.96 16.9464 15.96C16.4344 15.96 16.0451 15.8 15.7784 15.48C15.5118 15.16 15.3784 14.7067 15.3784 14.12ZM27.8776 14.728C27.8776 14.4613 27.9416 14.232 28.0696 14.04C28.1976 13.848 28.3896 13.6987 28.6456 13.592C28.9122 13.4853 29.2536 13.432 29.6696 13.432C30.1176 13.432 30.5389 13.4907 30.9336 13.608C31.3282 13.7147 31.7122 13.896 32.0856 14.152V13.4C32.0109 13.304 31.8669 13.1813 31.6536 13.032C31.4402 12.872 31.1522 12.7333 30.7896 12.616C30.4376 12.488 29.9949 12.424 29.4616 12.424C28.5549 12.424 27.8456 12.6427 27.3336 13.08C26.8322 13.5067 26.5816 14.0773 26.5816 14.792C26.5816 15.2933 26.6989 15.72 26.9336 16.072C27.1682 16.424 27.4776 16.696 27.8616 16.888C28.2562 17.0693 28.6776 17.16 29.1256 17.16C29.5309 17.16 29.9362 17.0853 30.3416 16.936C30.7576 16.7867 31.1042 16.5573 31.3816 16.248C31.6696 15.9387 31.8136 15.5493 31.8136 15.08L31.5576 14.12C31.5576 14.504 31.4616 14.8453 31.2696 15.144C31.0882 15.432 30.8376 15.656 30.5176 15.816C30.2082 15.976 29.8562 16.056 29.4616 16.056C29.1522 16.056 28.8749 16.008 28.6296 15.912C28.3949 15.8053 28.2082 15.6507 28.0696 15.448C27.9416 15.2453 27.8776 15.0053 27.8776 14.728ZM27.6856 11.336C27.8029 11.2507 27.9629 11.1493 28.1656 11.032C28.3682 10.9147 28.6136 10.8133 28.9016 10.728C29.2002 10.6427 29.5309 10.6 29.8936 10.6C30.1176 10.6 30.3309 10.6213 30.5336 10.664C30.7362 10.7067 30.9122 10.776 31.0616 10.872C31.2216 10.968 31.3442 11.1013 31.4296 11.272C31.5149 11.432 31.5576 11.64 31.5576 11.896V17H32.8376V11.72C32.8376 11.24 32.7149 10.8347 32.4696 10.504C32.2349 10.1733 31.8989 9.92267 31.4616 9.752C31.0349 9.57067 30.5336 9.48 29.9576 9.48C29.2749 9.48 28.6882 9.58133 28.1976 9.784C27.7176 9.98667 27.3389 10.1893 27.0616 10.392L27.6856 11.336ZM33.7266 9.64L37.2466 17.56L40.7666 9.64H39.3266L37.2466 14.84L35.1666 9.64H33.7266ZM44.5871 17.16C45.3764 17.16 46.0591 17.0053 46.6351 16.696C47.2217 16.376 47.7071 15.9067 48.0911 15.288L47.0511 14.632C46.7844 15.08 46.4591 15.416 46.0751 15.64C45.6911 15.8533 45.2484 15.96 44.7471 15.96C44.2457 15.96 43.8191 15.8533 43.4671 15.64C43.1151 15.4267 42.8484 15.1173 42.6671 14.712C42.4857 14.3067 42.3951 13.816 42.3951 13.24C42.4057 12.6747 42.5017 12.2 42.6831 11.816C42.8751 11.4213 43.1417 11.1227 43.4831 10.92C43.8351 10.7067 44.2564 10.6 44.7471 10.6C45.1631 10.6 45.5257 10.6907 45.8351 10.872C46.1444 11.0533 46.3844 11.304 46.5551 11.624C46.7364 11.944 46.8271 12.3227 46.8271 12.76C46.8271 12.8347 46.8111 12.9307 46.7791 13.048C46.7471 13.1547 46.7151 13.2347 46.6831 13.288L47.1951 12.552H41.9151V13.64H48.2031C48.2031 13.6187 48.2031 13.5707 48.2031 13.496C48.2137 13.4107 48.2191 13.3307 48.2191 13.256C48.2191 12.4773 48.0804 11.8053 47.8031 11.24C47.5257 10.6747 47.1257 10.2427 46.6031 9.944C46.0911 9.63467 45.4724 9.48 44.7471 9.48C44.0217 9.48 43.3817 9.64 42.8271 9.96C42.2831 10.28 41.8564 10.728 41.5471 11.304C41.2484 11.88 41.0991 12.552 41.0991 13.32C41.0991 14.0773 41.2431 14.744 41.5311 15.32C41.8297 15.896 42.2404 16.3493 42.7631 16.68C43.2964 17 43.9044 17.16 44.5871 17.16ZM48.8534 9.64V10.84H52.5334V9.64H48.8534ZM50.0534 7.08V17H51.3334V7.08H50.0534ZM53.8172 6.6C53.8172 6.83467 53.9025 7.04267 54.0732 7.224C54.2545 7.39467 54.4625 7.48 54.6972 7.48C54.9425 7.48 55.1505 7.39467 55.3212 7.224C55.4919 7.04267 55.5772 6.83467 55.5772 6.6C55.5772 6.35467 55.4919 6.14667 55.3212 5.976C55.1505 5.80533 54.9425 5.72 54.6972 5.72C54.4625 5.72 54.2545 5.80533 54.0732 5.976C53.9025 6.14667 53.8172 6.35467 53.8172 6.6ZM54.0572 9.64V17H55.3372V9.64H54.0572ZM63.3463 13.32C63.3463 12.808 63.453 12.3547 63.6663 11.96C63.8903 11.5547 64.189 11.24 64.5623 11.016C64.9463 10.792 65.3783 10.68 65.8583 10.68C66.253 10.68 66.621 10.744 66.9623 10.872C67.3143 10.9893 67.6183 11.1493 67.8743 11.352C68.1303 11.5547 68.3116 11.7787 68.4183 12.024V10.424C68.1623 10.1253 67.7943 9.896 67.3143 9.736C66.845 9.56533 66.3596 9.48 65.8583 9.48C65.1436 9.48 64.4983 9.64533 63.9223 9.976C63.3463 10.3067 62.8876 10.76 62.5463 11.336C62.2156 11.912 62.0503 12.5733 62.0503 13.32C62.0503 14.056 62.2156 14.7173 62.5463 15.304C62.8876 15.88 63.3463 16.3333 63.9223 16.664C64.4983 16.9947 65.1436 17.16 65.8583 17.16C66.3596 17.16 66.845 17.08 67.3143 16.92C67.7943 16.7493 68.1623 16.5147 68.4183 16.216V14.616C68.3116 14.8507 68.1303 15.0747 67.8743 15.288C67.6183 15.4907 67.3143 15.656 66.9623 15.784C66.621 15.9013 66.253 15.96 65.8583 15.96C65.3783 15.96 64.9463 15.848 64.5623 15.624C64.189 15.3893 63.8903 15.0747 63.6663 14.68C63.453 14.2853 63.3463 13.832 63.3463 13.32ZM69.7709 13.32C69.7709 14.056 69.9363 14.7173 70.2669 15.304C70.6083 15.88 71.0669 16.3333 71.6429 16.664C72.2189 16.9947 72.8643 17.16 73.5789 17.16C74.3043 17.16 74.9496 16.9947 75.5149 16.664C76.0909 16.3333 76.5443 15.88 76.8749 15.304C77.2163 14.7173 77.3869 14.056 77.3869 13.32C77.3869 12.5733 77.2163 11.912 76.8749 11.336C76.5443 10.76 76.0909 10.3067 75.5149 9.976C74.9496 9.64533 74.3043 9.48 73.5789 9.48C72.8643 9.48 72.2189 9.64533 71.6429 9.976C71.0669 10.3067 70.6083 10.76 70.2669 11.336C69.9363 11.912 69.7709 12.5733 69.7709 13.32ZM71.0669 13.32C71.0669 12.808 71.1736 12.3547 71.3869 11.96C71.6109 11.5547 71.9096 11.24 72.2829 11.016C72.6669 10.792 73.0989 10.68 73.5789 10.68C74.0589 10.68 74.4856 10.792 74.8589 11.016C75.2429 11.24 75.5416 11.5547 75.7549 11.96C75.9789 12.3547 76.0909 12.808 76.0909 13.32C76.0909 13.832 75.9789 14.2853 75.7549 14.68C75.5416 15.0747 75.2429 15.3893 74.8589 15.624C74.4856 15.848 74.0589 15.96 73.5789 15.96C73.0989 15.96 72.6669 15.848 72.2829 15.624C71.9096 15.3893 71.6109 15.0747 71.3869 14.68C71.1736 14.2853 71.0669 13.832 71.0669 13.32ZM83.8653 12.52V17H85.1453V12.36C85.1453 11.4747 84.916 10.776 84.4573 10.264C84.0093 9.74133 83.396 9.48 82.6173 9.48C82.1373 9.48 81.7106 9.58667 81.3373 9.8C80.9746 10.0133 80.6706 10.344 80.4253 10.792V9.64H79.1453V17H80.4253V12.52C80.4253 12.1573 80.5 11.8373 80.6493 11.56C80.8093 11.2827 81.028 11.0693 81.3053 10.92C81.5933 10.76 81.924 10.68 82.2973 10.68C82.8093 10.68 83.1986 10.8347 83.4653 11.144C83.732 11.4533 83.8653 11.912 83.8653 12.52ZM86.4316 9.64V10.84H90.1116V9.64H86.4316ZM87.6316 7.08V17H88.9116V7.08H87.6316ZM92.6753 14.12V9.64H91.3953V14.28C91.3953 15.1547 91.6246 15.8533 92.0833 16.376C92.542 16.8987 93.1553 17.16 93.9233 17.16C94.414 17.16 94.8406 17.0533 95.2033 16.84C95.566 16.616 95.87 16.2853 96.1153 15.848V17H97.3953V9.64H96.1153V14.12C96.1153 14.4827 96.0353 14.8027 95.8753 15.08C95.726 15.3573 95.5073 15.576 95.2193 15.736C94.942 15.8853 94.6166 15.96 94.2433 15.96C93.7313 15.96 93.342 15.8 93.0753 15.48C92.8086 15.16 92.6753 14.7067 92.6753 14.12ZM99.8016 4.52V17H101.082V4.52H99.8016ZM108.945 9C108.945 9.40533 108.822 9.8 108.577 10.184C108.332 10.5573 107.98 10.8667 107.521 11.112C107.062 11.3573 106.513 11.48 105.873 11.48H105.457L105.777 14.28H106.737L106.849 12.36C107.446 12.328 108.001 12.1627 108.513 11.864C109.025 11.5547 109.441 11.1547 109.761 10.664C110.081 10.1627 110.241 9.608 110.241 9C110.241 8.52 110.15 8.07733 109.969 7.672C109.798 7.26667 109.553 6.91467 109.233 6.616C108.924 6.30667 108.556 6.06667 108.129 5.896C107.713 5.72533 107.254 5.64 106.753 5.64C106.124 5.64 105.59 5.72 105.153 5.88C104.726 6.02933 104.364 6.248 104.065 6.536C103.766 6.81333 103.494 7.13867 103.249 7.512L104.289 8.168C104.534 7.76267 104.844 7.44267 105.217 7.208C105.601 6.96267 106.06 6.84 106.593 6.84C107.073 6.84 107.489 6.92533 107.841 7.096C108.193 7.26667 108.465 7.512 108.657 7.832C108.849 8.152 108.945 8.54133 108.945 9ZM105.409 16.36C105.409 16.5947 105.494 16.8027 105.665 16.984C105.846 17.1547 106.054 17.24 106.289 17.24C106.534 17.24 106.742 17.1547 106.913 16.984C107.084 16.8027 107.169 16.5947 107.169 16.36C107.169 16.1147 107.084 15.9067 106.913 15.736C106.742 15.5653 106.534 15.48 106.289 15.48C106.054 15.48 105.846 15.5653 105.665 15.736C105.494 15.9067 105.409 16.1147 105.409 16.36Z" fill="black"/>
<path d="M126.834 5.8V17H128.754V5.8H126.834ZM135.832 12.52V17H137.608V12.312C137.608 11.4373 137.39 10.7493 136.952 10.248C136.515 9.736 135.88 9.48 135.048 9.48C134.547 9.48 134.11 9.58667 133.736 9.8C133.374 10.0133 133.075 10.3387 132.84 10.776V9.64H131.096V17H132.84V12.52C132.84 12.1893 132.904 11.9013 133.032 11.656C133.171 11.4 133.363 11.208 133.608 11.08C133.854 10.9413 134.142 10.872 134.472 10.872C134.931 10.872 135.272 11.0107 135.496 11.288C135.72 11.5653 135.832 11.976 135.832 12.52ZM141.527 9.64H139.815V17H141.527V9.64ZM143.719 11.48L144.567 10.024C144.396 9.82133 144.194 9.67733 143.959 9.592C143.724 9.50667 143.474 9.464 143.207 9.464C142.834 9.464 142.471 9.60267 142.119 9.88C141.778 10.1467 141.495 10.5093 141.271 10.968C141.058 11.416 140.951 11.9333 140.951 12.52L141.527 12.856C141.527 12.504 141.564 12.2 141.639 11.944C141.724 11.6773 141.858 11.4693 142.039 11.32C142.22 11.1707 142.455 11.096 142.743 11.096C142.956 11.096 143.132 11.128 143.271 11.192C143.42 11.256 143.57 11.352 143.719 11.48ZM148.718 17.16C149.571 17.16 150.302 16.9947 150.91 16.664C151.518 16.3227 152.019 15.8213 152.414 15.16L150.91 14.568C150.686 14.9627 150.398 15.256 150.046 15.448C149.694 15.64 149.278 15.736 148.798 15.736C148.35 15.736 147.971 15.64 147.662 15.448C147.353 15.256 147.113 14.9733 146.942 14.6C146.782 14.2267 146.707 13.7787 146.718 13.256C146.718 12.7227 146.798 12.2747 146.958 11.912C147.129 11.5493 147.363 11.272 147.662 11.08C147.971 10.888 148.345 10.792 148.782 10.792C149.145 10.792 149.459 10.872 149.726 11.032C150.003 11.192 150.217 11.416 150.366 11.704C150.526 11.992 150.606 12.3333 150.606 12.728C150.606 12.8027 150.585 12.8933 150.542 13C150.51 13.1067 150.478 13.192 150.446 13.256L150.974 12.52H145.998V13.72H152.462C152.462 13.6773 152.462 13.608 152.462 13.512C152.473 13.416 152.478 13.3253 152.478 13.24C152.478 12.4507 152.334 11.7787 152.046 11.224C151.758 10.6587 151.337 10.2267 150.782 9.928C150.238 9.62933 149.577 9.48 148.798 9.48C148.019 9.48 147.342 9.64 146.766 9.96C146.19 10.2693 145.742 10.712 145.422 11.288C145.113 11.864 144.958 12.5413 144.958 13.32C144.958 14.088 145.113 14.76 145.422 15.336C145.731 15.912 146.169 16.36 146.734 16.68C147.31 17 147.971 17.16 148.718 17.16ZM153.727 17.496C153.748 18.136 153.914 18.7013 154.223 19.192C154.532 19.6827 154.97 20.0613 155.535 20.328C156.1 20.6053 156.778 20.744 157.567 20.744C158.239 20.744 158.863 20.6 159.439 20.312C160.015 20.0347 160.479 19.608 160.831 19.032C161.194 18.456 161.375 17.7253 161.375 16.84V9.64H159.679V16.84C159.679 17.3947 159.572 17.848 159.359 18.2C159.156 18.552 158.89 18.8133 158.559 18.984C158.228 19.1547 157.887 19.24 157.535 19.24C157.119 19.24 156.756 19.16 156.447 19C156.138 18.8507 155.898 18.6427 155.727 18.376C155.556 18.12 155.466 17.8267 155.455 17.496H153.727ZM153.583 13.272C153.583 14.0827 153.748 14.7707 154.079 15.336C154.41 15.9013 154.847 16.3333 155.391 16.632C155.946 16.9307 156.538 17.08 157.167 17.08C157.786 17.08 158.324 16.9307 158.783 16.632C159.252 16.3227 159.62 15.8853 159.887 15.32C160.164 14.744 160.303 14.0613 160.303 13.272C160.303 12.472 160.164 11.7947 159.887 11.24C159.62 10.6747 159.252 10.2427 158.783 9.944C158.324 9.63467 157.786 9.48 157.167 9.48C156.538 9.48 155.946 9.62933 155.391 9.928C154.847 10.2267 154.41 10.6587 154.079 11.224C153.748 11.7787 153.583 12.4613 153.583 13.272ZM155.375 13.272C155.375 12.7813 155.476 12.3653 155.679 12.024C155.882 11.6827 156.148 11.4267 156.479 11.256C156.82 11.0747 157.188 10.984 157.583 10.984C157.839 10.984 158.09 11.032 158.335 11.128C158.58 11.224 158.804 11.3733 159.007 11.576C159.21 11.768 159.37 12.008 159.487 12.296C159.615 12.5733 159.679 12.8987 159.679 13.272C159.679 13.7733 159.572 14.1947 159.359 14.536C159.156 14.8773 158.895 15.1387 158.575 15.32C158.255 15.4907 157.924 15.576 157.583 15.576C157.188 15.576 156.82 15.4907 156.479 15.32C156.148 15.1387 155.882 14.8773 155.679 14.536C155.476 14.184 155.375 13.7627 155.375 13.272ZM163.454 6.712C163.454 7 163.561 7.25067 163.774 7.464C163.998 7.66667 164.254 7.768 164.542 7.768C164.851 7.768 165.113 7.66667 165.326 7.464C165.539 7.25067 165.646 7 165.646 6.712C165.646 6.41333 165.539 6.16267 165.326 5.96C165.113 5.75733 164.851 5.656 164.542 5.656C164.254 5.656 163.998 5.75733 163.774 5.96C163.561 6.16267 163.454 6.41333 163.454 6.712ZM163.694 9.64V17H165.406V9.64H163.694ZM168.12 14.568L167.112 15.592C167.325 15.8693 167.592 16.136 167.912 16.392C168.232 16.6373 168.6 16.84 169.016 17C169.432 17.1493 169.896 17.224 170.408 17.224C171.208 17.224 171.842 17.016 172.312 16.6C172.792 16.1733 173.032 15.6133 173.032 14.92C173.032 14.472 172.93 14.1093 172.728 13.832C172.525 13.5547 172.253 13.32 171.912 13.128C171.57 12.936 171.192 12.76 170.776 12.6C170.477 12.4827 170.205 12.3707 169.96 12.264C169.725 12.1573 169.533 12.04 169.384 11.912C169.245 11.7733 169.176 11.6187 169.176 11.448C169.176 11.2453 169.256 11.0907 169.416 10.984C169.576 10.8773 169.784 10.824 170.04 10.824C170.402 10.824 170.754 10.9147 171.096 11.096C171.437 11.2773 171.725 11.512 171.96 11.8L172.92 10.776C172.717 10.5307 172.472 10.312 172.184 10.12C171.896 9.928 171.57 9.77333 171.208 9.656C170.856 9.53867 170.477 9.48 170.072 9.48C169.624 9.48 169.202 9.55467 168.808 9.704C168.424 9.84267 168.114 10.0613 167.88 10.36C167.656 10.6587 167.544 11.032 167.544 11.48C167.544 11.9173 167.645 12.28 167.848 12.568C168.061 12.856 168.328 13.0907 168.648 13.272C168.978 13.4427 169.309 13.592 169.64 13.72C169.97 13.8373 170.258 13.9547 170.504 14.072C170.749 14.1787 170.941 14.312 171.08 14.472C171.218 14.6213 171.288 14.8027 171.288 15.016C171.288 15.2613 171.197 15.4533 171.016 15.592C170.845 15.7307 170.605 15.8 170.296 15.8C170.05 15.8 169.805 15.752 169.56 15.656C169.314 15.56 169.074 15.4213 168.84 15.24C168.605 15.0587 168.365 14.8347 168.12 14.568ZM173.541 9.64V11.16H177.717V9.64H173.541ZM174.789 7.08V17H176.485V7.08H174.789ZM180.621 9.64H178.909V17H180.621V9.64ZM182.813 11.48L183.661 10.024C183.49 9.82133 183.287 9.67733 183.053 9.592C182.818 9.50667 182.567 9.464 182.301 9.464C181.927 9.464 181.565 9.60267 181.213 9.88C180.871 10.1467 180.589 10.5093 180.365 10.968C180.151 11.416 180.045 11.9333 180.045 12.52L180.621 12.856C180.621 12.504 180.658 12.2 180.733 11.944C180.818 11.6773 180.951 11.4693 181.133 11.32C181.314 11.1707 181.549 11.096 181.837 11.096C182.05 11.096 182.226 11.128 182.365 11.192C182.514 11.256 182.663 11.352 182.813 11.48ZM185.934 14.712C185.934 14.4773 185.988 14.28 186.094 14.12C186.212 13.96 186.382 13.8373 186.606 13.752C186.83 13.656 187.124 13.608 187.486 13.608C187.902 13.608 188.297 13.6613 188.67 13.768C189.044 13.8747 189.396 14.0453 189.726 14.28V13.4C189.63 13.2827 189.465 13.1547 189.23 13.016C188.996 12.8667 188.697 12.7387 188.334 12.632C187.982 12.5253 187.561 12.472 187.07 12.472C186.153 12.472 185.444 12.6853 184.942 13.112C184.441 13.528 184.19 14.0933 184.19 14.808C184.19 15.3093 184.308 15.736 184.542 16.088C184.777 16.44 185.092 16.7067 185.486 16.888C185.881 17.0693 186.308 17.16 186.766 17.16C187.193 17.16 187.609 17.0853 188.014 16.936C188.43 16.776 188.772 16.536 189.038 16.216C189.316 15.896 189.454 15.5013 189.454 15.032L189.198 14.072C189.198 14.4453 189.113 14.7653 188.942 15.032C188.772 15.2987 188.542 15.5067 188.254 15.656C187.977 15.7947 187.662 15.864 187.31 15.864C187.044 15.864 186.804 15.8213 186.59 15.736C186.388 15.6507 186.228 15.5227 186.11 15.352C185.993 15.1707 185.934 14.9573 185.934 14.712ZM185.39 11.56C185.508 11.4853 185.673 11.3947 185.886 11.288C186.1 11.1707 186.356 11.0747 186.654 11C186.964 10.9147 187.289 10.872 187.63 10.872C187.854 10.872 188.062 10.8933 188.254 10.936C188.446 10.9787 188.612 11.048 188.75 11.144C188.9 11.24 189.012 11.3627 189.086 11.512C189.161 11.6613 189.198 11.8533 189.198 12.088V17H190.894V11.752C190.894 11.2613 190.761 10.8453 190.494 10.504C190.238 10.1627 189.876 9.90667 189.406 9.736C188.937 9.55467 188.404 9.464 187.806 9.464C187.113 9.464 186.505 9.56 185.982 9.752C185.46 9.944 185.028 10.1413 184.686 10.344L185.39 11.56ZM191.885 9.64V11.16H196.061V9.64H191.885ZM193.133 7.08V17H194.829V7.08H193.133ZM197.188 6.712C197.188 7 197.295 7.25067 197.508 7.464C197.732 7.66667 197.988 7.768 198.276 7.768C198.586 7.768 198.847 7.66667 199.06 7.464C199.274 7.25067 199.38 7 199.38 6.712C199.38 6.41333 199.274 6.16267 199.06 5.96C198.847 5.75733 198.586 5.656 198.276 5.656C197.988 5.656 197.732 5.75733 197.508 5.96C197.295 6.16267 197.188 6.41333 197.188 6.712ZM197.428 9.64V17H199.14V9.64H197.428ZM200.494 13.976H203.774V12.424H200.494V13.976ZM203.836 9.64L207.66 17.672L211.468 9.64H209.58L207.66 14.392L205.74 9.64H203.836ZM213.637 14.712C213.637 14.4773 213.691 14.28 213.797 14.12C213.915 13.96 214.085 13.8373 214.309 13.752C214.533 13.656 214.827 13.608 215.189 13.608C215.605 13.608 216 13.6613 216.373 13.768C216.747 13.8747 217.099 14.0453 217.429 14.28V13.4C217.333 13.2827 217.168 13.1547 216.933 13.016C216.699 12.8667 216.4 12.7387 216.037 12.632C215.685 12.5253 215.264 12.472 214.773 12.472C213.856 12.472 213.147 12.6853 212.645 13.112C212.144 13.528 211.893 14.0933 211.893 14.808C211.893 15.3093 212.011 15.736 212.245 16.088C212.48 16.44 212.795 16.7067 213.189 16.888C213.584 17.0693 214.011 17.16 214.469 17.16C214.896 17.16 215.312 17.0853 215.717 16.936C216.133 16.776 216.475 16.536 216.741 16.216C217.019 15.896 217.157 15.5013 217.157 15.032L216.901 14.072C216.901 14.4453 216.816 14.7653 216.645 15.032C216.475 15.2987 216.245 15.5067 215.957 15.656C215.68 15.7947 215.365 15.864 215.013 15.864C214.747 15.864 214.507 15.8213 214.293 15.736C214.091 15.6507 213.931 15.5227 213.813 15.352C213.696 15.1707 213.637 14.9573 213.637 14.712ZM213.093 11.56C213.211 11.4853 213.376 11.3947 213.589 11.288C213.803 11.1707 214.059 11.0747 214.357 11C214.667 10.9147 214.992 10.872 215.333 10.872C215.557 10.872 215.765 10.8933 215.957 10.936C216.149 10.9787 216.315 11.048 216.453 11.144C216.603 11.24 216.715 11.3627 216.789 11.512C216.864 11.6613 216.901 11.8533 216.901 12.088V17H218.597V11.752C218.597 11.2613 218.464 10.8453 218.197 10.504C217.941 10.1627 217.579 9.90667 217.109 9.736C216.64 9.55467 216.107 9.464 215.509 9.464C214.816 9.464 214.208 9.56 213.685 9.752C213.163 9.944 212.731 10.1413 212.389 10.344L213.093 11.56Z" fill="#424386"/>
<path d="M248.881 12.2338L244.79 8.143C244.643 7.97141 244.385 7.9514 244.213 8.09839C244.042 8.24534 244.022 8.50359 244.169 8.67519C244.183 8.69118 244.197 8.70612 244.213 8.7198L247.605 12.1152H231.409C231.183 12.1152 231 12.2984 231 12.5243C231 12.7503 231.183 12.9334 231.409 12.9334H247.605L244.213 16.3247C244.042 16.4716 244.022 16.7299 244.169 16.9015C244.316 17.0731 244.574 17.0931 244.746 16.9461C244.762 16.9324 244.777 16.9175 244.79 16.9015L248.881 12.8106C249.04 12.6511 249.04 12.3934 248.881 12.2338Z" fill="#424386"/>
</svg>
