<svg width="15" height="15" viewBox="0 0 15 15" fill="none" xmlns="http://www.w3.org/2000/svg">
<path d="M1.98889 15H12.4556C13.5528 15 14.4445 14.1083 14.4445 13.0111V3.09999C14.4445 2.00276 13.5528 1.11109 12.4556 1.11109H11.6667V0.555545C11.6667 0.249986 11.4166 0 11.1111 0C10.8055 0 10.5555 0.249986 10.5555 0.555545V1.11109H3.88891V0.555545C3.88891 0.249986 3.63888 0 3.33332 0C3.02776 0 2.77777 0.249986 2.77777 0.555545V1.11109H1.98889C0.891674 1.11109 0 2.00276 0 3.09999V13.0111C0 14.1083 0.891674 15 1.98889 15ZM1.11114 3.09999C1.11114 2.61667 1.50558 2.22223 1.98889 2.22223H2.77777V2.77777C2.77777 3.08333 3.02776 3.33332 3.33332 3.33332C3.63888 3.33332 3.88886 3.08333 3.88886 2.77777V2.22223H10.5555V2.77777C10.5555 3.08333 10.8055 3.33332 11.1111 3.33332C11.4166 3.33332 11.6666 3.08333 11.6666 2.77777V2.22223H12.4555C12.9388 2.22223 13.3333 2.61667 13.3333 3.09999V4.72223H1.11114V3.09999ZM1.11114 5.83332H13.3334V13.0111C13.3334 13.4944 12.9389 13.8889 12.4556 13.8889H1.98889C1.50558 13.8889 1.11114 13.4944 1.11114 13.0111V5.83332Z" fill="#424386"/>
</svg>
