<svg width="64" height="64" viewBox="0 0 64 64" fill="none" xmlns="http://www.w3.org/2000/svg">
<circle cx="32" cy="32" r="31" stroke="white" stroke-width="2"/>
<g clip-path="url(#clip0_60_386)">
<path d="M41.1309 32.9891C41.1309 32.5281 40.7571 32.1543 40.2959 32.1543C39.8347 32.1543 39.4608 32.5281 39.4608 32.9891C39.4608 37.0736 36.1381 40.3963 32.0536 40.3963C27.9694 40.3963 24.6467 37.0736 24.6467 32.9891C24.6467 32.5281 24.2728 32.1543 23.8116 32.1543C23.3504 32.1543 22.9766 32.5281 22.9766 32.9891C22.9766 37.713 26.6035 41.6046 31.2186 42.0275V44.2755H28.1198C27.6585 44.2755 27.2847 44.6493 27.2847 45.1106C27.2847 45.5718 27.6585 45.9456 28.1198 45.9456H35.9877C36.4487 45.9456 36.8226 45.5718 36.8226 45.1106C36.8226 44.6493 36.4487 44.2755 35.9877 44.2755H32.8887V42.0275C37.504 41.6048 41.1309 37.713 41.1309 32.9891Z" fill="white"/>
<path d="M32.0536 38.3357C35.0018 38.3357 37.4004 35.9371 37.4004 32.9889V23.2919C37.4004 20.3439 35.0018 17.9453 32.0536 17.9453C29.1056 17.9453 26.707 20.3439 26.707 23.2919V32.9889C26.707 35.9371 29.1056 38.3357 32.0536 38.3357Z" fill="white"/>
</g>
<defs>
<clipPath id="clip0_60_386">
<rect width="28" height="28" fill="white" transform="translate(18 18)"/>
</clipPath>
</defs>
</svg>
