<svg width="4" height="22" viewBox="0 0 4 22" fill="none" xmlns="http://www.w3.org/2000/svg">
<path d="M0 11C0 12.0854 0.883312 12.9688 1.96875 12.9688C3.05419 12.9688 3.9375 12.0854 3.9375 11C3.9375 9.91456 3.05419 9.03125 1.96875 9.03125C0.883312 9.03125 0 9.91456 0 11Z" fill="white" fill-opacity="0.6"/>
<path d="M0 20C0 21.0854 0.883312 21.9688 1.96875 21.9688C3.05419 21.9688 3.9375 21.0854 3.9375 20C3.9375 18.9146 3.05419 18.0312 1.96875 18.0312C0.883312 18.0312 0 18.9146 0 20Z" fill="white" fill-opacity="0.6"/>
<path d="M0 1.96875C0 3.05419 0.883312 3.9375 1.96875 3.9375C3.05419 3.9375 3.9375 3.05419 3.9375 1.96875C3.9375 0.883312 3.05419 0 1.96875 0C0.883312 0 0 0.883312 0 1.96875Z" fill="white" fill-opacity="0.6"/>
</svg>
