<svg width="22" height="22" viewBox="0 0 22 22" fill="none" xmlns="http://www.w3.org/2000/svg">
<path d="M11.7812 16.7031H10.2188V15.1406H11.7812V16.7031ZM11.7812 12.1384C13.2919 11.7729 14.3385 10.4025 14.2788 8.85266C14.214 7.16504 12.8293 5.79272 11.1267 5.729C10.217 5.6947 9.35791 6.02051 8.7085 6.64587C8.07019 7.26074 7.71875 8.08557 7.71875 8.96875H9.28125C9.28125 8.51404 9.46265 8.08875 9.79224 7.77136C10.1332 7.44299 10.5859 7.27271 11.0681 7.29028C11.9594 7.32385 12.6838 8.03638 12.7175 8.91272C12.7488 9.72937 12.1852 10.4509 11.377 10.6283C10.6949 10.778 10.2188 11.3673 10.2188 12.0615V13.5781H11.7812V12.1384ZM18.071 18.071C19.9598 16.1824 21 13.671 21 11C21 8.32898 19.9598 5.81763 18.071 3.92896C16.1824 2.04016 13.671 1 11 1C8.32898 1 5.81763 2.04016 3.92896 3.92896C2.04016 5.81763 1 8.32898 1 11C1 13.671 2.04016 16.1824 3.92896 18.071C5.81763 19.9598 8.32898 21 11 21C13.671 21 16.1824 19.9598 18.071 18.071ZM19.4375 11C19.4375 15.6523 15.6523 19.4375 11 19.4375C6.34766 19.4375 2.5625 15.6523 2.5625 11C2.5625 6.34766 6.34766 2.5625 11 2.5625C15.6523 2.5625 19.4375 6.34766 19.4375 11Z" fill="white" fill-opacity="0.6" stroke="#28297A" stroke-width="0.3"/>
</svg>
