<svg width="20" height="20" viewBox="0 0 20 20" fill="none" xmlns="http://www.w3.org/2000/svg">
<path d="M18 15.9788C19.2632 14.2857 20 12.2751 20 10.0529C20 7.83069 19.2632 5.71429 18 4.12698V4.02116C16.1053 1.5873 13.2632 0 10 0C6.73684 0 3.89474 1.5873 2.10526 3.91534V4.02116C0.736842 5.71429 0 7.83069 0 10.0529C0 12.2751 0.736842 14.3915 2 15.9788V16.0847C3.78947 18.5185 6.73684 20 9.89474 20C13.1579 20 16 18.4127 17.7895 16.0847C18 16.0847 18 16.0847 18 15.9788ZM17.4737 15.0265C16.3158 14.1799 14.9474 13.545 13.5789 13.1217C13.6842 12.0635 13.7895 11.1111 13.7895 10.0529C13.7895 8.99471 13.6842 7.93651 13.5789 6.98413C15.0526 6.66667 16.3158 6.03175 17.4737 5.07937C18.4211 6.45503 18.9474 8.25397 18.9474 10.0529C18.9474 11.8519 18.4211 13.545 17.4737 15.0265ZM7.36842 10.0529C7.36842 8.99471 7.47368 8.04233 7.47368 7.19577C8.31579 7.30159 9.05263 7.40741 9.89474 7.40741H10C10.8421 7.40741 11.6842 7.30159 12.4211 7.19577C12.5263 8.04233 12.5263 8.99471 12.5263 10.0529C12.5263 11.1111 12.4211 12.0635 12.4211 12.9101C10.7368 12.5926 9.05263 12.5926 7.47368 12.9101C7.47368 12.0635 7.36842 11.1111 7.36842 10.0529ZM16.8421 4.2328C15.7895 4.97355 14.6316 5.60847 13.3684 5.92593C13.0526 4.02116 12.6316 2.32804 11.8947 1.26984C13.8947 1.69312 15.5789 2.75132 16.8421 4.2328ZM10 1.0582C10.8421 1.0582 11.8947 2.96296 12.3158 6.13757C11.5789 6.24339 10.7368 6.34921 10 6.34921C9.26316 6.34921 8.42105 6.24339 7.68421 6.13757C8.10526 2.96296 9.1579 1.0582 10 1.0582ZM8.10526 1.26984C7.36842 2.32804 6.94737 4.02116 6.63158 5.92593C5.36842 5.60847 4.21053 4.97355 3.15789 4.2328C4.42105 2.75132 6.10526 1.69312 8.10526 1.26984ZM2.52632 5.07937C3.68421 5.92593 5.05263 6.56085 6.52632 6.98413C6.42105 7.93651 6.31579 8.99471 6.31579 10.0529C6.31579 11.1111 6.42105 12.1693 6.52632 13.1217C5.05263 13.4392 3.78947 14.0741 2.63158 15.0265C1.68421 13.6508 1.15789 11.8519 1.15789 10.0529C1.05263 8.25397 1.57895 6.56085 2.52632 5.07937ZM3.15789 15.873C4.21053 15.1323 5.36842 14.4974 6.63158 14.1799C6.94737 16.0847 7.36842 17.7778 8.10526 18.836C6.10526 18.4127 4.42105 17.3545 3.15789 15.873ZM10 19.0476C9.1579 19.0476 8.10526 17.1429 7.68421 13.9683C9.26316 13.6508 10.8421 13.6508 12.4211 13.9683C11.8947 17.1429 10.8421 19.0476 10 19.0476ZM11.8947 18.836C12.6316 17.7778 13.0526 16.0847 13.3684 14.1799C14.6316 14.4974 15.7895 15.0265 16.8421 15.873C15.5789 17.3545 13.8947 18.4127 11.8947 18.836Z" fill="white" fill-opacity="0.6"/>
</svg>
