<svg width="19" height="19" viewBox="0 0 19 19" fill="none" xmlns="http://www.w3.org/2000/svg">
<path fill-rule="evenodd" clip-rule="evenodd" d="M8.54863 1.79078C10.9364 -0.596909 14.8215 -0.596946 17.2092 1.79078C19.5969 4.17847 19.5969 8.06364 17.2092 10.4513C15.578 12.0827 13.1729 12.6488 10.9919 11.9419L9.60873 13.3091C9.50449 13.4121 9.36388 13.4698 9.21734 13.4698H8.19943V14.5066C8.19943 14.6655 8.13155 14.8168 8.01295 14.9224C7.89428 15.028 7.73627 15.0781 7.5784 15.0596L6.73287 14.9613L6.62232 16.1336C6.59723 16.3997 6.38645 16.6104 6.1203 16.6355L4.94824 16.746L5.0465 17.5915C5.06617 17.7605 5.00746 17.9291 4.88719 18.0494L4.09973 18.8369C3.99527 18.9413 3.85373 19 3.70604 19H0.556715C0.249264 19 0 18.7508 0 18.4433V15.294C0 15.1463 0.0586699 15.0047 0.163096 14.9003L7.05739 8.00597C6.35153 5.8255 6.91782 3.42159 8.54863 1.79078ZM11.0521 10.7816C12.9089 11.5078 15.0167 11.0692 16.4219 9.66406C18.3755 7.71047 18.3755 4.53172 16.4219 2.57817C14.4683 0.624583 11.2896 0.624583 9.3359 2.57817C7.93076 3.98339 7.49209 6.09113 8.21839 7.94801C8.29895 8.15396 8.24993 8.38809 8.09355 8.54447L1.11339 15.5246V17.8866H3.4754L3.90936 17.4525L3.77644 16.3094C3.75914 16.1607 3.80252 16.0112 3.89674 15.8948C3.991 15.7784 4.12812 15.7049 4.27723 15.6908L5.55698 15.5702L5.6777 14.2904C5.69176 14.1413 5.76531 14.0041 5.88169 13.9099C5.9981 13.8157 6.1475 13.7724 6.29627 13.7897L7.08596 13.8814V12.9131C7.08596 12.6057 7.33522 12.3564 7.64268 12.3564H8.98863L10.4579 10.9041C10.6143 10.7495 10.8471 10.7014 11.0521 10.7816ZM12.2726 4.36524C12.9237 3.71405 13.9834 3.71401 14.6346 4.36524C15.2857 5.01644 15.2857 6.07602 14.6346 6.72722C13.9834 7.37848 12.9237 7.37841 12.2726 6.72722C11.6214 6.07602 11.6214 5.01644 12.2726 4.36524ZM13.0599 5.9399C13.277 6.15699 13.6302 6.15696 13.8472 5.9399C14.0648 5.72229 14.0648 5.3702 13.8472 5.15259C13.6296 4.93498 13.2776 4.93498 13.0599 5.15259C12.8429 5.36968 12.8429 5.72285 13.0599 5.9399Z" fill="#424386"/>
</svg>
