<svg width="49" height="14" viewBox="0 0 49 14" fill="none" xmlns="http://www.w3.org/2000/svg">
<path d="M24.2188 0.75C22.9826 0.75 21.7742 1.11656 20.7464 1.80332C19.7186 2.49007 18.9176 3.46619 18.4445 4.60823C17.9715 5.75027 17.8477 7.00693 18.0888 8.21931C18.33 9.4317 18.9253 10.5453 19.7993 11.4194C20.6734 12.2935 21.7871 12.8888 22.9994 13.1299C24.2118 13.3711 25.4685 13.2473 26.6105 12.7742C27.7526 12.3012 28.7287 11.5001 29.4154 10.4723C30.1022 9.44451 30.4688 8.23613 30.4688 7C30.4669 5.34297 29.8078 3.75434 28.6361 2.58264C27.4644 1.41094 25.8758 0.751861 24.2188 0.75ZM24.2188 11.6875C23.2917 11.6875 22.3854 11.4126 21.6145 10.8975C20.8437 10.3824 20.2429 9.65036 19.8881 8.79383C19.5333 7.9373 19.4405 6.9948 19.6213 6.08551C19.8022 5.17623 20.2486 4.341 20.9042 3.68544C21.5597 3.02988 22.395 2.58344 23.3043 2.40257C24.2136 2.2217 25.1561 2.31453 26.0126 2.66931C26.8691 3.0241 27.6012 3.62491 28.1163 4.39576C28.6313 5.16662 28.9063 6.0729 28.9063 7C28.9048 8.24277 28.4105 9.43422 27.5317 10.313C26.653 11.1918 25.4615 11.6861 24.2188 11.6875Z" fill="white"/>
<path d="M6.25 0.75C5.01387 0.75 3.8055 1.11656 2.77769 1.80332C1.74988 2.49007 0.948803 3.46619 0.475756 4.60823C0.00270801 5.75027 -0.121063 7.00693 0.120095 8.21931C0.361252 9.4317 0.956507 10.5453 1.83059 11.4194C2.70466 12.2935 3.81831 12.8888 5.03069 13.1299C6.24307 13.3711 7.49974 13.2473 8.64177 12.7742C9.78381 12.3012 10.7599 11.5001 11.4467 10.4723C12.1334 9.44451 12.5 8.23613 12.5 7C12.4981 5.34297 11.8391 3.75434 10.6674 2.58264C9.49567 1.41094 7.90703 0.751861 6.25 0.75ZM6.25 11.6875C5.3229 11.6875 4.41662 11.4126 3.64577 10.8975C2.87491 10.3824 2.2741 9.65036 1.91932 8.79383C1.56453 7.9373 1.4717 6.9948 1.65257 6.08551C1.83344 5.17623 2.27988 4.341 2.93544 3.68544C3.591 3.02988 4.42623 2.58344 5.33552 2.40257C6.2448 2.2217 7.1873 2.31453 8.04383 2.66931C8.90036 3.0241 9.63245 3.62491 10.1475 4.39576C10.6626 5.16662 10.9375 6.0729 10.9375 7C10.9361 8.24277 10.4418 9.43422 9.563 10.313C8.68423 11.1918 7.49277 11.6861 6.25 11.6875Z" fill="white"/>
<path d="M42.1875 0.75C40.9514 0.75 39.743 1.11656 38.7152 1.80332C37.6874 2.49007 36.8863 3.46619 36.4133 4.60823C35.9402 5.75027 35.8164 7.00693 36.0576 8.21931C36.2988 9.4317 36.894 10.5453 37.7681 11.4194C38.6422 12.2935 39.7558 12.8888 40.9682 13.1299C42.1806 13.3711 43.4372 13.2473 44.5793 12.7742C45.7213 12.3012 46.6974 11.5001 47.3842 10.4723C48.0709 9.44451 48.4375 8.23613 48.4375 7C48.4356 5.34297 47.7766 3.75434 46.6049 2.58264C45.4332 1.41094 43.8445 0.751861 42.1875 0.75ZM42.1875 11.6875C41.2604 11.6875 40.3541 11.4126 39.5833 10.8975C38.8124 10.3824 38.2116 9.65036 37.8568 8.79383C37.502 7.9373 37.4092 6.9948 37.5901 6.08551C37.7709 5.17623 38.2174 4.341 38.8729 3.68544C39.5285 3.02988 40.3637 2.58344 41.273 2.40257C42.1823 2.2217 43.1248 2.31453 43.9813 2.66931C44.8379 3.0241 45.5699 3.62491 46.085 4.39576C46.6001 5.16662 46.875 6.0729 46.875 7C46.8736 8.24277 46.3793 9.43422 45.5005 10.313C44.6217 11.1918 43.4303 11.6861 42.1875 11.6875Z" fill="white"/>
</svg>
