<svg width="29" height="26" viewBox="0 0 29 26" fill="none" xmlns="http://www.w3.org/2000/svg">
<path fill-rule="evenodd" clip-rule="evenodd" d="M3.76985 10.875C4.65406 4.73746 9.9335 0 16.3125 0C23.3085 5.26192e-05 29 5.69245 29 12.6875C29 19.6826 23.3085 25.375 16.3125 25.375C12.3795 25.375 8.73326 23.5944 6.30835 20.4915L7.73675 19.3764C9.81568 22.0368 12.9415 23.5625 16.3125 23.5625C22.3094 23.5625 27.1875 18.6844 27.1875 12.6875C27.1875 6.69068 22.3093 1.81252 16.3125 1.81252C10.9344 1.81252 6.46821 5.73996 5.6012 10.875H9.06249L4.53125 15.4063L0 10.875H3.76985ZM14.4956 13.5902L14.4982 7.25H16.3107L16.3081 13.215L20.5783 17.4843L19.2968 18.7658L14.7611 14.231C14.5911 14.0611 14.4956 13.831 14.4956 13.5902Z" fill="#424386"/>
</svg>
