<svg width="91" height="18" viewBox="0 0 91 18" fill="none" xmlns="http://www.w3.org/2000/svg">
<path d="M2.19121 6.825L5.79121 12H7.36621L3.61621 6.825H2.19121ZM0.316211 1.5V12H1.59121V1.5H0.316211ZM1.02121 2.625H3.16621C3.61621 2.625 4.01121 2.705 4.35121 2.865C4.70121 3.025 4.97121 3.255 5.16121 3.555C5.36121 3.855 5.46121 4.22 5.46121 4.65C5.46121 5.08 5.36121 5.445 5.16121 5.745C4.97121 6.045 4.70121 6.275 4.35121 6.435C4.01121 6.595 3.61621 6.675 3.16621 6.675H1.02121V7.8H3.16621C3.84621 7.8 4.45121 7.675 4.98121 7.425C5.52121 7.165 5.94621 6.8 6.25621 6.33C6.57621 5.85 6.73621 5.29 6.73621 4.65C6.73621 4 6.57621 3.44 6.25621 2.97C5.94621 2.5 5.52121 2.14 4.98121 1.89C4.45121 1.63 3.84621 1.5 3.16621 1.5H1.02121V2.625ZM11.3048 12.15C12.0448 12.15 12.6848 12.005 13.2248 11.715C13.7748 11.415 14.2298 10.975 14.5898 10.395L13.6148 9.78C13.3648 10.2 13.0598 10.515 12.6998 10.725C12.3398 10.925 11.9248 11.025 11.4548 11.025C10.9848 11.025 10.5848 10.925 10.2548 10.725C9.92477 10.525 9.67477 10.235 9.50477 9.855C9.33477 9.475 9.24977 9.015 9.24977 8.475C9.25977 7.945 9.34977 7.5 9.51977 7.14C9.69977 6.77 9.94977 6.49 10.2698 6.3C10.5998 6.1 10.9948 6 11.4548 6C11.8448 6 12.1848 6.085 12.4748 6.255C12.7648 6.425 12.9898 6.66 13.1498 6.96C13.3198 7.26 13.4048 7.615 13.4048 8.025C13.4048 8.095 13.3898 8.185 13.3598 8.295C13.3298 8.395 13.2998 8.47 13.2698 8.52L13.7498 7.83H8.79977V8.85H14.6948C14.6948 8.83 14.6948 8.785 14.6948 8.715C14.7048 8.635 14.7098 8.56 14.7098 8.49C14.7098 7.76 14.5798 7.13 14.3198 6.6C14.0598 6.07 13.6848 5.665 13.1948 5.385C12.7148 5.095 12.1348 4.95 11.4548 4.95C10.7748 4.95 10.1748 5.1 9.65477 5.4C9.14477 5.7 8.74477 6.12 8.45477 6.66C8.17477 7.2 8.03477 7.83 8.03477 8.55C8.03477 9.26 8.16977 9.885 8.43977 10.425C8.71977 10.965 9.10477 11.39 9.59477 11.7C10.0948 12 10.6648 12.15 11.3048 12.15ZM16.6395 9.885L15.6945 10.47C15.8245 10.74 16.0145 11.005 16.2645 11.265C16.5245 11.525 16.8395 11.74 17.2095 11.91C17.5795 12.07 17.9945 12.15 18.4545 12.15C19.1645 12.15 19.7345 11.95 20.1645 11.55C20.6045 11.15 20.8245 10.65 20.8245 10.05C20.8245 9.64 20.7245 9.305 20.5245 9.045C20.3345 8.785 20.0745 8.565 19.7445 8.385C19.4145 8.195 19.0495 8.02 18.6495 7.86C18.4095 7.76 18.1795 7.655 17.9595 7.545C17.7395 7.435 17.5595 7.31 17.4195 7.17C17.2795 7.03 17.2095 6.87 17.2095 6.69C17.2095 6.46 17.2995 6.29 17.4795 6.18C17.6595 6.07 17.8745 6.015 18.1245 6.015C18.4845 6.015 18.8045 6.1 19.0845 6.27C19.3745 6.44 19.6145 6.655 19.8045 6.915L20.7645 6.3C20.6245 6.04 20.4295 5.81 20.1795 5.61C19.9295 5.41 19.6395 5.25 19.3095 5.13C18.9895 5.01 18.6445 4.95 18.2745 4.95C17.9045 4.95 17.5445 5.015 17.1945 5.145C16.8545 5.275 16.5745 5.475 16.3545 5.745C16.1445 6.015 16.0395 6.355 16.0395 6.765C16.0395 7.165 16.1395 7.5 16.3395 7.77C16.5495 8.03 16.8045 8.245 17.1045 8.415C17.4145 8.575 17.7195 8.715 18.0195 8.835C18.2895 8.935 18.5445 9.045 18.7845 9.165C19.0245 9.275 19.2195 9.415 19.3695 9.585C19.5295 9.745 19.6095 9.945 19.6095 10.185C19.6095 10.455 19.5095 10.67 19.3095 10.83C19.1195 10.98 18.8545 11.055 18.5145 11.055C18.2345 11.055 17.9745 11.005 17.7345 10.905C17.5045 10.795 17.2995 10.65 17.1195 10.47C16.9395 10.29 16.7795 10.095 16.6395 9.885ZM25.0743 12.15C25.8143 12.15 26.4543 12.005 26.9943 11.715C27.5443 11.415 27.9993 10.975 28.3593 10.395L27.3843 9.78C27.1343 10.2 26.8293 10.515 26.4693 10.725C26.1093 10.925 25.6943 11.025 25.2243 11.025C24.7543 11.025 24.3543 10.925 24.0243 10.725C23.6943 10.525 23.4443 10.235 23.2743 9.855C23.1043 9.475 23.0193 9.015 23.0193 8.475C23.0293 7.945 23.1193 7.5 23.2893 7.14C23.4693 6.77 23.7193 6.49 24.0393 6.3C24.3693 6.1 24.7643 6 25.2243 6C25.6143 6 25.9543 6.085 26.2443 6.255C26.5343 6.425 26.7593 6.66 26.9193 6.96C27.0893 7.26 27.1743 7.615 27.1743 8.025C27.1743 8.095 27.1593 8.185 27.1293 8.295C27.0993 8.395 27.0693 8.47 27.0393 8.52L27.5193 7.83H22.5693V8.85H28.4643C28.4643 8.83 28.4643 8.785 28.4643 8.715C28.4743 8.635 28.4793 8.56 28.4793 8.49C28.4793 7.76 28.3493 7.13 28.0893 6.6C27.8293 6.07 27.4543 5.665 26.9643 5.385C26.4843 5.095 25.9043 4.95 25.2243 4.95C24.5443 4.95 23.9443 5.1 23.4243 5.4C22.9143 5.7 22.5143 6.12 22.2243 6.66C21.9443 7.2 21.8043 7.83 21.8043 8.55C21.8043 9.26 21.9393 9.885 22.2093 10.425C22.4893 10.965 22.8743 11.39 23.3643 11.7C23.8643 12 24.4343 12.15 25.0743 12.15ZM29.074 5.1V6.225H32.524V5.1H29.074ZM30.199 2.7V12H31.399V2.7H30.199ZM34.2675 9.87C34.2675 9.62 34.3275 9.405 34.4475 9.225C34.5675 9.045 34.7475 8.905 34.9875 8.805C35.2375 8.705 35.5575 8.655 35.9475 8.655C36.3675 8.655 36.7625 8.71 37.1325 8.82C37.5025 8.92 37.8625 9.09 38.2125 9.33V8.625C38.1425 8.535 38.0075 8.42 37.8075 8.28C37.6075 8.13 37.3375 8 36.9975 7.89C36.6675 7.77 36.2525 7.71 35.7525 7.71C34.9025 7.71 34.2375 7.915 33.7575 8.325C33.2875 8.725 33.0525 9.26 33.0525 9.93C33.0525 10.4 33.1625 10.8 33.3825 11.13C33.6025 11.46 33.8925 11.715 34.2525 11.895C34.6225 12.065 35.0175 12.15 35.4375 12.15C35.8175 12.15 36.1975 12.08 36.5775 11.94C36.9675 11.8 37.2925 11.585 37.5525 11.295C37.8225 11.005 37.9575 10.64 37.9575 10.2L37.7175 9.3C37.7175 9.66 37.6275 9.98 37.4475 10.26C37.2775 10.53 37.0425 10.74 36.7425 10.89C36.4525 11.04 36.1225 11.115 35.7525 11.115C35.4625 11.115 35.2025 11.07 34.9725 10.98C34.7525 10.88 34.5775 10.735 34.4475 10.545C34.3275 10.355 34.2675 10.13 34.2675 9.87ZM34.0875 6.69C34.1975 6.61 34.3475 6.515 34.5375 6.405C34.7275 6.295 34.9575 6.2 35.2275 6.12C35.5075 6.04 35.8175 6 36.1575 6C36.3675 6 36.5675 6.02 36.7575 6.06C36.9475 6.1 37.1125 6.165 37.2525 6.255C37.4025 6.345 37.5175 6.47 37.5975 6.63C37.6775 6.78 37.7175 6.975 37.7175 7.215V12H38.9175V7.05C38.9175 6.6 38.8025 6.22 38.5725 5.91C38.3525 5.6 38.0375 5.365 37.6275 5.205C37.2275 5.035 36.7575 4.95 36.2175 4.95C35.5775 4.95 35.0275 5.045 34.5675 5.235C34.1175 5.425 33.7625 5.615 33.5025 5.805L34.0875 6.69ZM39.8992 5.1V6.225H43.3492V5.1H39.8992ZM41.0242 2.7V12H42.2242V2.7H41.0242ZM41.6842 12.9L40.3642 16.785L41.2342 17.1L42.8842 13.35L41.6842 12.9ZM44.5527 2.25C44.5527 2.47 44.6327 2.665 44.7927 2.835C44.9627 2.995 45.1577 3.075 45.3777 3.075C45.6077 3.075 45.8027 2.995 45.9627 2.835C46.1227 2.665 46.2027 2.47 46.2027 2.25C46.2027 2.02 46.1227 1.825 45.9627 1.665C45.8027 1.505 45.6077 1.425 45.3777 1.425C45.1577 1.425 44.9627 1.505 44.7927 1.665C44.6327 1.825 44.5527 2.02 44.5527 2.25ZM44.7777 5.1V12H45.9777V5.1H44.7777ZM54.0713 15.3V5.1H52.8713V15.3H54.0713ZM59.8463 8.55C59.8463 7.8 59.6913 7.16 59.3813 6.63C59.0713 6.09 58.6563 5.675 58.1363 5.385C57.6263 5.095 57.0563 4.95 56.4263 4.95C55.8563 4.95 55.3513 5.095 54.9113 5.385C54.4813 5.675 54.1413 6.09 53.8913 6.63C53.6513 7.16 53.5313 7.8 53.5313 8.55C53.5313 9.29 53.6513 9.93 53.8913 10.47C54.1413 11.01 54.4813 11.425 54.9113 11.715C55.3513 12.005 55.8563 12.15 56.4263 12.15C57.0563 12.15 57.6263 12.005 58.1363 11.715C58.6563 11.425 59.0713 11.01 59.3813 10.47C59.6913 9.93 59.8463 9.29 59.8463 8.55ZM58.6313 8.55C58.6313 9.08 58.5213 9.53 58.3013 9.9C58.0913 10.27 57.8063 10.55 57.4463 10.74C57.0963 10.93 56.7063 11.025 56.2763 11.025C55.9263 11.025 55.5813 10.93 55.2413 10.74C54.9013 10.55 54.6213 10.27 54.4013 9.9C54.1813 9.53 54.0713 9.08 54.0713 8.55C54.0713 8.02 54.1813 7.57 54.4013 7.2C54.6213 6.83 54.9013 6.55 55.2413 6.36C55.5813 6.17 55.9263 6.075 56.2763 6.075C56.7063 6.075 57.0963 6.17 57.4463 6.36C57.8063 6.55 58.0913 6.83 58.3013 7.2C58.5213 7.57 58.6313 8.02 58.6313 8.55ZM62.041 9.87C62.041 9.62 62.101 9.405 62.221 9.225C62.341 9.045 62.521 8.905 62.761 8.805C63.011 8.705 63.331 8.655 63.721 8.655C64.141 8.655 64.536 8.71 64.906 8.82C65.276 8.92 65.636 9.09 65.986 9.33V8.625C65.916 8.535 65.781 8.42 65.581 8.28C65.381 8.13 65.111 8 64.771 7.89C64.441 7.77 64.026 7.71 63.526 7.71C62.676 7.71 62.011 7.915 61.531 8.325C61.061 8.725 60.826 9.26 60.826 9.93C60.826 10.4 60.936 10.8 61.156 11.13C61.376 11.46 61.666 11.715 62.026 11.895C62.396 12.065 62.791 12.15 63.211 12.15C63.591 12.15 63.971 12.08 64.351 11.94C64.741 11.8 65.066 11.585 65.326 11.295C65.596 11.005 65.731 10.64 65.731 10.2L65.491 9.3C65.491 9.66 65.401 9.98 65.221 10.26C65.051 10.53 64.816 10.74 64.516 10.89C64.226 11.04 63.896 11.115 63.526 11.115C63.236 11.115 62.976 11.07 62.746 10.98C62.526 10.88 62.351 10.735 62.221 10.545C62.101 10.355 62.041 10.13 62.041 9.87ZM61.861 6.69C61.971 6.61 62.121 6.515 62.311 6.405C62.501 6.295 62.731 6.2 63.001 6.12C63.281 6.04 63.591 6 63.931 6C64.141 6 64.341 6.02 64.531 6.06C64.721 6.1 64.886 6.165 65.026 6.255C65.176 6.345 65.291 6.47 65.371 6.63C65.451 6.78 65.491 6.975 65.491 7.215V12H66.691V7.05C66.691 6.6 66.576 6.22 66.346 5.91C66.126 5.6 65.811 5.365 65.401 5.205C65.001 5.035 64.531 4.95 63.991 4.95C63.351 4.95 62.801 5.045 62.341 5.235C61.891 5.425 61.536 5.615 61.276 5.805L61.861 6.69ZM69.9227 5.1H68.7227V12H69.9227V5.1ZM72.0077 6.42L72.6677 5.43C72.4877 5.24 72.2877 5.115 72.0677 5.055C71.8577 4.985 71.6277 4.95 71.3777 4.95C71.0577 4.95 70.7427 5.075 70.4327 5.325C70.1227 5.575 69.8677 5.915 69.6677 6.345C69.4777 6.765 69.3827 7.25 69.3827 7.8H69.9227C69.9227 7.47 69.9527 7.175 70.0127 6.915C70.0827 6.655 70.2027 6.45 70.3727 6.3C70.5427 6.15 70.7777 6.075 71.0777 6.075C71.2777 6.075 71.4427 6.105 71.5727 6.165C71.7027 6.215 71.8477 6.3 72.0077 6.42ZM73.0445 8.55C73.0445 9.24 73.1995 9.86 73.5095 10.41C73.8295 10.95 74.2595 11.375 74.7995 11.685C75.3395 11.995 75.9445 12.15 76.6145 12.15C77.2945 12.15 77.8995 11.995 78.4295 11.685C78.9695 11.375 79.3945 10.95 79.7045 10.41C80.0245 9.86 80.1845 9.24 80.1845 8.55C80.1845 7.85 80.0245 7.23 79.7045 6.69C79.3945 6.15 78.9695 5.725 78.4295 5.415C77.8995 5.105 77.2945 4.95 76.6145 4.95C75.9445 4.95 75.3395 5.105 74.7995 5.415C74.2595 5.725 73.8295 6.15 73.5095 6.69C73.1995 7.23 73.0445 7.85 73.0445 8.55ZM74.2595 8.55C74.2595 8.07 74.3595 7.645 74.5595 7.275C74.7695 6.895 75.0495 6.6 75.3995 6.39C75.7595 6.18 76.1645 6.075 76.6145 6.075C77.0645 6.075 77.4645 6.18 77.8145 6.39C78.1745 6.6 78.4545 6.895 78.6545 7.275C78.8645 7.645 78.9695 8.07 78.9695 8.55C78.9695 9.03 78.8645 9.455 78.6545 9.825C78.4545 10.195 78.1745 10.49 77.8145 10.71C77.4645 10.92 77.0645 11.025 76.6145 11.025C76.1645 11.025 75.7595 10.92 75.3995 10.71C75.0495 10.49 74.7695 10.195 74.5595 9.825C74.3595 9.455 74.2595 9.03 74.2595 8.55ZM81.833 0.3V12H83.033V0.3H81.833ZM85.83 9.87C85.83 9.62 85.89 9.405 86.01 9.225C86.13 9.045 86.31 8.905 86.55 8.805C86.8 8.705 87.12 8.655 87.51 8.655C87.93 8.655 88.325 8.71 88.695 8.82C89.065 8.92 89.425 9.09 89.775 9.33V8.625C89.705 8.535 89.57 8.42 89.37 8.28C89.17 8.13 88.9 8 88.56 7.89C88.23 7.77 87.815 7.71 87.315 7.71C86.465 7.71 85.8 7.915 85.32 8.325C84.85 8.725 84.615 9.26 84.615 9.93C84.615 10.4 84.725 10.8 84.945 11.13C85.165 11.46 85.455 11.715 85.815 11.895C86.185 12.065 86.58 12.15 87 12.15C87.38 12.15 87.76 12.08 88.14 11.94C88.53 11.8 88.855 11.585 89.115 11.295C89.385 11.005 89.52 10.64 89.52 10.2L89.28 9.3C89.28 9.66 89.19 9.98 89.01 10.26C88.84 10.53 88.605 10.74 88.305 10.89C88.015 11.04 87.685 11.115 87.315 11.115C87.025 11.115 86.765 11.07 86.535 10.98C86.315 10.88 86.14 10.735 86.01 10.545C85.89 10.355 85.83 10.13 85.83 9.87ZM85.65 6.69C85.76 6.61 85.91 6.515 86.1 6.405C86.29 6.295 86.52 6.2 86.79 6.12C87.07 6.04 87.38 6 87.72 6C87.93 6 88.13 6.02 88.32 6.06C88.51 6.1 88.675 6.165 88.815 6.255C88.965 6.345 89.08 6.47 89.16 6.63C89.24 6.78 89.28 6.975 89.28 7.215V12H90.48V7.05C90.48 6.6 90.365 6.22 90.135 5.91C89.915 5.6 89.6 5.365 89.19 5.205C88.79 5.035 88.32 4.95 87.78 4.95C87.14 4.95 86.59 5.045 86.13 5.235C85.68 5.425 85.325 5.615 85.065 5.805L85.65 6.69Z" fill="white" fill-opacity="0.6"/>
<path d="M-0.883789 13.875H91.38V14.625H-0.883789V13.875Z" fill="white" fill-opacity="0.6"/>
</svg>
