<svg width="25" height="13" viewBox="0 0 25 13" fill="none" xmlns="http://www.w3.org/2000/svg">
<path d="M0.165237 5.88035L5.84692 0.198612C6.05102 -0.0397141 6.40971 -0.0674967 6.64803 0.13665C6.88636 0.340748 6.91414 0.699433 6.71 0.937759C6.69095 0.959975 6.67025 0.980727 6.64803 0.99972L1.93791 5.71555H24.4318C24.7456 5.71555 25 5.96994 25 6.28376C25 6.59757 24.7456 6.85191 24.4318 6.85191H1.93791L6.64803 11.562C6.88636 11.7661 6.91414 12.1248 6.71 12.3631C6.50585 12.6015 6.14721 12.6292 5.90889 12.4251C5.88667 12.4061 5.86592 12.3854 5.84692 12.3631L0.16519 6.68141C-0.0550709 6.45988 -0.0550709 6.10197 0.165237 5.88035Z" fill="white" fill-opacity="0.6"/>
</svg>
