<svg width="64" height="64" viewBox="0 0 64 64" fill="none" xmlns="http://www.w3.org/2000/svg">
<circle cx="32" cy="32" r="31" stroke="white" stroke-width="2"/>
<path d="M42.0002 25H37.8858C37.6804 24.9997 37.48 24.9361 37.3119 24.8181C37.1437 24.7 37.0159 24.5331 36.9458 24.34L36.4527 22.979C36.2418 22.3999 35.858 21.8995 35.3534 21.5456C34.8489 21.1916 34.2478 21.0012 33.6314 21H28.3688C27.7525 21.0012 27.1514 21.1916 26.6469 21.5454C26.1423 21.8993 25.7585 22.3995 25.5475 22.9785L25.0543 24.34C24.9841 24.5331 24.8563 24.7 24.6882 24.818C24.52 24.9361 24.3197 24.9996 24.1142 25H20C19.2046 25.0009 18.4421 25.3173 17.8796 25.8797C17.3172 26.4421 17.0009 27.2047 17 28V40.0001C17.0009 40.7955 17.3172 41.5581 17.8796 42.1205C18.4421 42.6829 19.2046 42.9993 20 43.0001H42.0002C42.7955 42.9993 43.5581 42.6829 44.1205 42.1205C44.683 41.5581 44.9993 40.7955 45.0002 40.0001V28C44.9993 27.2047 44.683 26.4421 44.1205 25.8797C43.5581 25.3173 42.7955 25.0009 42.0002 25ZM27.107 28.74L27.1112 28.895C27.7566 28.323 28.509 27.8848 29.3249 27.6055C30.1407 27.3262 31.0039 27.2115 31.8644 27.2679C33.1059 27.3296 34.2893 27.8125 35.2194 28.6372C36.1495 29.4618 36.7708 30.5789 36.9806 31.8041C37.0078 31.9334 37.009 32.0667 36.9843 32.1965C36.9596 32.3263 36.9094 32.4499 36.8367 32.5601C36.7639 32.6704 36.67 32.7652 36.5605 32.839C36.4509 32.9127 36.3278 32.9641 36.1983 32.99C36.0687 33.0159 35.9353 33.016 35.8058 32.99C35.6763 32.9641 35.5531 32.9128 35.4435 32.839C35.334 32.7653 35.2401 32.6705 35.1673 32.5603C35.0945 32.45 35.0443 32.3264 35.0196 32.1967C34.8918 31.4016 34.4931 30.6752 33.891 30.1404C33.2889 29.6057 32.5205 29.2956 31.7159 29.2626C30.9494 29.2122 30.1828 29.3607 29.4905 29.6935C28.7982 30.0264 28.2036 30.5324 27.7643 31.1626L29.1529 31.3083C29.4167 31.336 29.6587 31.4674 29.8256 31.6735C29.9925 31.8796 30.0707 32.1436 30.043 32.4074C30.0153 32.6712 29.8839 32.9132 29.6778 33.0801C29.4717 33.2471 29.2077 33.3253 28.9439 33.2976L26.0909 32.9976C25.8498 32.9721 25.6262 32.86 25.4616 32.6821C25.297 32.5042 25.2026 32.2726 25.1959 32.0303L25.108 28.7948C25.1049 28.5324 25.2052 28.2792 25.3871 28.09C25.5691 27.9009 25.8181 27.7908 26.0805 27.7836C26.3429 27.7764 26.5976 27.8727 26.7896 28.0516C26.9816 28.2305 27.0956 28.4778 27.107 28.74ZM36.027 39.3022H35.9992C35.7389 39.3021 35.4888 39.2003 35.3023 39.0187C35.1157 38.8371 35.0073 38.5899 35.0002 38.3296L34.9958 38.1683C33.9152 39.1882 32.4876 39.7596 31.0017 39.7671H30.9924C29.6937 39.7308 28.4379 39.2946 27.3965 38.5179C26.355 37.7412 25.5787 36.662 25.1735 35.4277C25.1264 35.3051 25.1039 35.1744 25.1074 35.0431C25.1108 34.9119 25.1401 34.7825 25.1935 34.6626C25.3013 34.4203 25.501 34.2307 25.7487 34.1357C25.9963 34.0406 26.2715 34.0478 26.5138 34.1557C26.7561 34.2636 26.9456 34.4633 27.0407 34.7109C27.3067 35.5645 27.8288 36.3156 28.5363 36.8623C29.2437 37.409 30.1022 37.7249 30.9953 37.7671H31.0017C31.6672 37.7526 32.319 37.5755 32.9004 37.2513C33.4817 36.9271 33.975 36.4656 34.3371 35.9071L32.9543 35.7619C32.6905 35.7342 32.4485 35.6028 32.2816 35.3967C32.1147 35.1906 32.0365 34.9266 32.0642 34.6628C32.0919 34.399 32.2233 34.157 32.4294 33.9901C32.6355 33.8232 32.8995 33.745 33.1633 33.7727L36.0158 34.0727C36.2569 34.098 36.4806 34.2101 36.6452 34.3881C36.8098 34.566 36.9042 34.7977 36.9108 35.04L37.0001 38.275C37.0037 38.4063 36.9814 38.537 36.9344 38.6597C36.8875 38.7824 36.8168 38.8946 36.7265 38.99C36.6362 39.0853 36.5279 39.162 36.408 39.2155C36.288 39.269 36.1587 39.2984 36.0274 39.3019L36.027 39.3022Z" fill="white"/>
</svg>
